SplineFontDB: 3.0
FontName: Parkosz
FullName: Parkosz
FamilyName: Parkosz
Weight: Medium
Copyright: Created by Maciej Strzelczyk, with FontForge 2.0 (http://fontforge.sf.net)
UComments: "2013-6-9: Created." 
Version: 001.000
ItalicAngle: 0
UnderlinePosition: -102.4
UnderlineWidth: 51.2
Ascent: 683
Descent: 341
LayerCount: 2
Layer: 0 0 "Warstwa t+AUIA-a"  1
Layer: 1 0 "Plan pierwszy"  0
XUID: [1021 90 1930998488 16230043]
FSType: 8
OS2Version: 0
OS2_WeightWidthSlopeOnly: 0
OS2_UseTypoMetrics: 1
CreationTime: 1370812374
ModificationTime: 1371675898
PfmFamily: 17
TTFWeight: 500
TTFWidth: 5
LineGap: 92
VLineGap: 0
OS2TypoAscent: 0
OS2TypoAOffset: 1
OS2TypoDescent: 0
OS2TypoDOffset: 1
OS2TypoLinegap: 92
OS2WinAscent: 0
OS2WinAOffset: 1
OS2WinDescent: 0
OS2WinDOffset: 1
HheadAscent: 0
HheadAOffset: 1
HheadDescent: 0
HheadDOffset: 1
OS2Vendor: 'PfEd'
MarkAttachClasses: 1
DEI: 91125
LangName: 1033 
Encoding: UnicodeFull
UnicodeInterp: none
NameList: Adobe Glyph List
DisplaySize: -24
AntiAlias: 1
FitToEm: 1
WidthSeparation: 180
WinInfo: 0 51 17
BeginPrivate: 0
EndPrivate
Grid
-1024 -165.342 m 0
 2048 -165.342 l 0
  Named: "D+APMBQgAA" 
-1024 537.6 m 0
 2048 537.6 l 0
  Named: "Du+AXwA-e" 
-1024 360.96 m 0
 2048 360.96 l 0
  Named: "Ma+AUIA-e" 
EndSplineSet
BeginChars: 1114112 32

StartChar: a
Encoding: 97 97 0
Width: 459
VWidth: 0
Flags: HW
HStem: 0 48<127 207> 333 28<365 373>
VStem: 65 54<52 254> 251 57<54 72>
LayerCount: 2
Fore
SplineSet
65 134 m 0
 65 263 125 345 194 358 c 0
 208 361 217 361 228 361 c 3
 254 361 275 354 283 342 c 0
 294 325 309 361 309 361 c 1
 373 361 l 1
 393 333 l 1
 333 343 307 147 307 81 c 0
 307 5 384 94 398 175 c 1
 416 135 395 0 323 0 c 0
 248 0 251 72 251 72 c 1
 242 41 201 0 160 0 c 0
 118 0 65 28 65 134 c 0
153 48 m 0
 251 48 304 236 256 321 c 0
 247 337 219 338 203 330 c 0
 142 297 119 208 119 138 c 0
 119 106 121 48 153 48 c 0
EndSplineSet
EndChar

StartChar: b
Encoding: 98 98 1
Width: 521
VWidth: 0
Flags: HW
HStem: 0 73<208 307> 267 9<47 60> 299 63<276 364> 521 17G<290 319> 521 17G<290 319>
VStem: 117 75<88 211> 379 83<154 284>
LayerCount: 2
Fore
SplineSet
379 228 m 0xe6
 379 257 362 299 324 299 c 0
 268 299 192 209 192 140 c 0
 192 108 213 73 251 73 c 0
 311 73 379 159 379 228 c 0xe6
274 350 m 1
 303 355 334 362 361 362 c 0
 387 362 410 356 425 335 c 0
 451 298 463 261 463 226 c 3
 463 135 390 58 344 28 c 0
 315 9 282 0 250 0 c 3
 184 0 124 36 117 101 c 1
 117 165 147 239 160 283 c 1
 127 276 93 267 71 267 c 0
 58 267 49 270 46 277 c 1
 96 290 151 318 178 348 c 1
 192 456 187 464 218 505 c 0
 239 533 277 538 303 538 c 0xf6
 334 538 351 500 351 469 c 0
 351 418 303 377 274 350 c 1
240 388 m 1
 255 399 283 431 294 456 c 0
 299 467 299 488 287 492 c 1
 279 495 266 486 258 472 c 0
 249 456 237 413 240 388 c 1
EndSplineSet
EndChar

StartChar: c
Encoding: 99 99 2
Width: 390
VWidth: 0
Flags: HW
HStem: 0 18G<156 178> 344 17G<234 277>
VStem: 60 275<236 283>
LayerCount: 2
Fore
SplineSet
246 332 m 0
 153 297 101 49 174 29 c 1
 236 19 250 80 294 160 c 0
 299 168 324 172 324 143 c 1
 297 79 254 10 190 1 c 0
 185 0 181 0 176 0 c 3
 136 0 88 17 69 84 c 0
 63 106 60 126 60 145 c 3
 60 292 219 361 250 361 c 0
 305 361 314 346 331 302 c 1
 334 292 335 283 335 273 c 3
 335 235 313 203 266 213 c 0
 232 221 247 273 287 296 c 1
 296 308 277 344 246 332 c 0
EndSplineSet
EndChar

StartChar: d
Encoding: 100 100 3
Width: 498
VWidth: 0
Flags: HW
HStem: 0 34<117 212> 336 25<212 275> 515 23<238 367 437 454>
LayerCount: 2
Fore
SplineSet
61 159 m 24,0,-1
238 539 m 1,1,-1
 302 539 378 539 454 539 c 1,4,-1
 454 515 l 1,5,-1
 436 515 439 513 436 501 c 2,8,-1
 329 75 l 2,9,-1
 326 58 342 48 358 55 c 0,12,-1
 403 73 408 120 426 161 c 1,15,-1
 445 87 411 0 343 0 c 0,18,-1
 311 0 262 0 262 73 c 1,21,-1
 250 38 206 0 151 0 c 0,24,-1
 83 0 61 85 61 159 c 3,27,-1
 61 271 152 361 231 361 c 3,30,-1
 273 361 309 359 320 304 c 1,33,-1
 368 500 l 2,34,-1
 371 514 367 515 355 515 c 0,37,-1
 291 515 267 515 238 515 c 1,40,-1
 238 544 238 521 238 539 c 1,1,-1
175 34 m 0,43,-1
 210 34 250 80 272 165 c 0,46,-1
 299 268 299 336 244 336 c 3,49,-1
 206 336 166 285 152 175 c 0,52,-1
 137 61 154 34 175 34 c 0,43,-1
EndSplineSet
EndChar

StartChar: e
Encoding: 101 101 4
Width: 366
VWidth: 0
Flags: HW
HStem: 0 33<136 216> 310 51<185 253>
VStem: 49 264
LayerCount: 2
Fore
SplineSet
291 171 m 1
 291 133 274 0 155 0 c 3
 83 0 59 58 73 171 c 1
 63 173 59 177 49 189 c 1
 63 184 64 183 76 184 c 1
 103 288 150 360 237 360 c 3
 282 360 312 331 312 270 c 3
 312 221 230 169 145 169 c 1
 121 89 115 33 172 33 c 3
 233 33 253 98 291 171 c 1
150 190 m 1
 177 195 210 201 228 214 c 0
 265 242 268 310 223 310 c 3
 172 310 158 231 150 190 c 1
EndSplineSet
EndChar

StartChar: f
Encoding: 102 102 5
Width: 522
VWidth: 0
Flags: HW
HStem: -163 105<54 131> 310 34<175 272 340 392> 486 51<359 443>
VStem: 42 97<-111 -63> 272 61<160 310 344 423> 411 70<454 485>
LayerCount: 2
Fore
SplineSet
111 -163 m 3
 71 -163 42 -143 42 -103 c 3
 42 -75 54 -58 93 -58 c 3
 133 -58 133 -81 139 -112 c 1
 163 -128 225 -97 272 310 c 1
 175 310 l 1
 175 344 l 1
 279 344 l 1
 295 495 358 538 409 538 c 3
 475 538 481 504 481 475 c 3
 481 434 411 406 411 452 c 3
 411 479 407 486 387 486 c 3
 360 486 340 443 340 344 c 1
 392 344 l 1
 392 310 l 1
 333 310 l 1
 279 -157 179 -163 111 -163 c 3
EndSplineSet
EndChar

StartChar: g
Encoding: 103 103 6
Width: 448
VWidth: 0
Flags: HW
HStem: -273 98<176 248> 292 69<201 292>
VStem: 44 84<-201 -138> 71 72<77 227> 322 60<117 260>
LayerCount: 2
Fore
SplineSet
298 49 m 1xe8
 265 3 212 -6 167 3 c 0
 112 14 71 60 71 130 c 3xd8
 71 219 120 361 239 361 c 3
 311 361 382 338 382 211 c 3
 382 158 383 162 371 107 c 1
 371 -73 325 -79 278 -98 c 0
 204 -128 128 -123 128 -169 c 0
 128 -229 190 -191 228 -175 c 0
 247 -167 260 -181 260 -216 c 3
 260 -266 213 -273 165 -273 c 3
 91 -273 44 -252 44 -169 c 3
 44 -88 89 -79 149 -62 c 0
 221 -42 298 -78 298 49 c 1xe8
190 61 m 0
 249 51 322 119 322 176 c 3
 322 220 301 292 255 292 c 3
 194 292 143 212 143 154 c 0
 143 120 155 67 190 61 c 0
EndSplineSet
EndChar

StartChar: h
Encoding: 104 104 7
Width: 440
VWidth: 0
Flags: HW
HStem: 0 18G<58 77 243 313> 326 35<192 278> 505 33<66 168>
LayerCount: 2
Fore
SplineSet
66 538 m 1
 238 538 l 1
 188 335 l 1
 190 353 228 361 256 361 c 3
 264 361 273 359 278 358 c 0
 321 348 343 314 333 270 c 0
 319 202 257 134 299 78 c 0
 325 43 377 118 383 160 c 1
 406 82 346 0 281 0 c 0
 205 0 221 127 267 203 c 0
 294 246 311 326 235 326 c 0
 170 326 168 260 158 225 c 2
 108 32 l 2
 100 3 88 0 66 0 c 0
 50 0 44 15 51 42 c 2
 167 476 l 1
 173 505 157 505 141 505 c 2
 66 505 l 1
 66 538 l 1
EndSplineSet
EndChar

StartChar: i
Encoding: 105 105 8
Width: 314
VWidth: 0
Flags: HW
HStem: 0 35<147 203> 336 25<114 166> 447 91<176 254>
VStem: 81 65<36 144> 169 91<453 531> 175 60<221 334>
LayerCount: 2
Fore
SplineSet
55 230 m 1xf4
 65 290 81 361 156 361 c 3
 206 361 236 331 236 286 c 3
 236 207 146 156 146 75 c 3
 146 56 146 35 171 35 c 3
 208 35 232 96 262 141 c 1
 262 76 226 0 151 0 c 3
 114 0 81 18 81 75 c 3
 81 171 175 205 175 286 c 3
 175 316 165 336 146 336 c 3
 101 336 85 280 55 230 c 1xf4
260 492 m 3xf8
 260 467 240 447 215 447 c 3
 190 447 169 467 169 492 c 3
 169 517 190 538 215 538 c 3
 240 538 260 517 260 492 c 3xf8
EndSplineSet
EndChar

StartChar: j
Encoding: 106 106 9
Width: 448
VWidth: 0
Flags: HW
HStem: -165 38<148 231> 0 34<154 213> 323 38<226 308>
LayerCount: 2
Fore
SplineSet
41 -93 m 0
 41 -59 58 -37 88 -37 c 0
 148 -37 126 -127 177 -127 c 0
 262 -127 268 -37 268 21 c 1
 238 5 208 0 171 0 c 0
 95 0 79 74 79 126 c 0
 79 280 195 361 250 361 c 0
 291 361 320 349 328 322 c 1
 358 322 364 368 398 361 c 1
 361 48 323 -165 165 -165 c 0
 110 -165 41 -148 41 -93 c 0
175 34 m 0
 265 34 377 323 276 323 c 0
 161 323 104 34 175 34 c 0
EndSplineSet
EndChar

StartChar: k
Encoding: 107 107 10
Width: 449
VWidth: 0
Flags: HW
HStem: 0 40<253 327> 270 91<322 400> 506 32<66 175>
LayerCount: 2
Fore
SplineSet
118 16 m 2
 114 0 102 0 82 0 c 0
 58 0 42 0 46 16 c 2
 174 481 l 1
 182 505 166 506 150 506 c 2
 66 506 l 1
 66 538 l 1
 262 538 l 1
 174 217 l 1
 202 217 218 209 232 197 c 1
 279 293 305 361 358 361 c 0
 382 361 405 350 405 318 c 0
 405 290 392 270 369 270 c 0
 345 270 327 269 319 301 c 1
 310 330 290 281 244 188 c 1
 306 132 246 40 297 40 c 0
 338 40 363 93 384 125 c 1
 375 69 339 0 267 0 c 0
 239 0 218 28 218 56 c 0
 218 87 225 94 230 124 c 0
 238 168 198 188 164 180 c 1
 118 16 l 2
EndSplineSet
EndChar

StartChar: l
Encoding: 108 108 11
Width: 330
VWidth: 0
Flags: HW
HStem: 0 18G<151 209> 521 17G<198 234> 521 17G<198 234>
VStem: 237 39<322 485>
LayerCount: 2
Fore
SplineSet
255 106 m 0xd0
 321 106 236 0 181 0 c 0
 120 0 87 17 91 44 c 2
 111 188 l 1
 68 155 l 2
 56 145 40 174 50 184 c 1
 117 237 l 1
 152 503 l 2
 155 527 183 538 213 538 c 0
 254 538 276 487 276 430 c 0
 276 353 281 321 169 233 c 1
 151 77 l 2
 143 8 240 106 255 106 c 0xd0
174 282 m 1
 216 315 237 326 237 416 c 0
 237 473 204 520 197 465 c 2
 174 282 l 1
EndSplineSet
EndChar

StartChar: m
Encoding: 109 109 12
Width: 704
VWidth: 0
Flags: HW
HStem: -165 34<545 631> 307 54<124 205> 326 35<507 596>
LayerCount: 2
Fore
SplineSet
53 243 m 0xc0
 82 318 131 361 185 361 c 0xc0
 213 361 241 358 259 322 c 1
 285 345 318 361 362 361 c 0xa0
 405 361 426 341 446 307 c 1xc0
 495 356 535 361 583 361 c 0xa0
 617 361 656 341 646 307 c 2xc0
 536 -72 l 2
 527 -103 546 -131 595 -131 c 0
 629 -131 639 -116 659 -96 c 1
 654 -130 624 -165 590 -165 c 0
 511 -165 474 -121 487 -77 c 2
 583 253 l 2
 593 289 611 326 574 326 c 0xa0
 524 326 461 293 446 243 c 2
 377 8 l 2
 373 -7 317 -2 328 37 c 2
 397 273 l 2
 424 364 276 319 264 278 c 2
 185 8 l 2
 180 -8 125 -2 136 37 c 2
 205 273 l 2
 209 288 197 307 175 307 c 0
 126 307 108 269 82 218 c 0
 72 199 45 223 53 243 c 0xc0
EndSplineSet
EndChar

StartChar: n
Encoding: 110 110 13
Width: 480
VWidth: 0
Flags: HW
HStem: -166 35<321 407> 307 54<125 206> 326 35<289 371>
LayerCount: 2
Fore
SplineSet
53 243 m 0xc0
 83 319 132 361 186 361 c 0xc0
 214 361 242 359 260 322 c 1
 286 354 301 361 358 361 c 0xa0
 393 361 432 341 422 307 c 2xc0
 312 -72 l 2
 303 -104 322 -131 371 -131 c 0
 406 -131 415 -117 435 -97 c 1
 430 -132 401 -166 366 -166 c 0
 287 -166 250 -121 263 -77 c 2
 358 252 l 2
 368 288 387 326 349 326 c 0xa0
 307 326 273 306 265 277 c 2
 186 6 l 2
 183 -4 125 -4 136 35 c 2
 206 272 l 2
 210 287 198 307 176 307 c 0
 127 307 108 268 82 217 c 0
 72 198 45 222 53 243 c 0xc0
EndSplineSet
EndChar

StartChar: o
Encoding: 111 111 14
Width: 429
VWidth: 0
Flags: HW
HStem: -0 21<144 203> 326 35<210 291>
VStem: 61 69<48 217> 305 63<142 304>
LayerCount: 2
Fore
SplineSet
167 -0 m 3
 96 0 61 59 61 147 c 3
 61 248 144 361 249 361 c 3
 333 361 368 287 368 210 c 3
 368 165 325 0 167 -0 c 3
174 20 m 3
 229 20 305 137 305 252 c 3
 305 277 304 326 249 326 c 3
 186 326 130 202 130 94 c 3
 130 38 140 20 174 20 c 3
EndSplineSet
EndChar

StartChar: p
Encoding: 112 112 15
Width: 488
VWidth: 0
Flags: HW
HStem: 0 53<206 325> 314 47<235 358>
VStem: 379 48<108 293>
LayerCount: 2
Fore
SplineSet
42 -143 m 2
 137 215 l 2
 158 294 211 361 305 361 c 3
 399 361 427 307 427 194 c 3
 427 77 342 0 253 0 c 3
 201 0 153 31 153 78 c 1
 94 -143 l 2
 86 -172 34 -175 42 -143 c 2
181 173 m 3
 181 105 201 53 253 53 c 3
 332 53 379 110 379 194 c 3
 379 246 373 314 310 314 c 3
 210 314 181 235 181 173 c 3
EndSplineSet
EndChar

StartChar: q
Encoding: 113 113 16
Width: 434
VWidth: 0
Flags: HW
HStem: -165 52<82 199 258 360> 0 37<137 208> 324 37<199 275>
VStem: 61 330
LayerCount: 2
Fore
SplineSet
82 -165 m 1
 82 -113 l 1
 171 -113 l 2
 192 -113 192 -113 203 -76 c 2
 237 37 l 1
 203 6 171 0 140 0 c 3
 70 0 61 78 61 136 c 3
 61 272 145 361 229 361 c 3
 287 361 302 361 327 336 c 1
 359 336 360 361 391 361 c 1
 261 -76 l 2
 250 -113 276 -113 297 -113 c 2
 360 -113 l 1
 360 -165 l 1
 82 -165 l 1
161 37 m 3
 282 37 333 324 244 324 c 3
 127 324 89 37 161 37 c 3
EndSplineSet
EndChar

StartChar: r
Encoding: 114 114 17
Width: 419
VWidth: 0
Flags: HW
HStem: 0 18G<114 134> 304 57<252 290> 330 31<110 163>
VStem: 290 86<269 304>
LayerCount: 2
Fore
SplineSet
62 209 m 1xb0
 50 260 64 361 153 361 c 3
 223 361 210 298 194 245 c 1
 216 320 256 361 323 361 c 3xb0
 354 361 375 346 375 316 c 3
 375 279 357 264 331 264 c 3
 312 264 290 271 290 304 c 1xd0
 254 304 236 282 227 249 c 2
 168 41 l 2
 161 16 145 0 123 0 c 3
 105 0 84 10 93 41 c 2
 153 249 l 2
 166 294 175 330 145 330 c 3
 102 330 69 271 62 209 c 1xb0
EndSplineSet
EndChar

StartChar: s
Encoding: 115 115 18
Width: 428
VWidth: 0
Flags: HW
HStem: 0 34<151 256> 217 70<301 322> 331 30<214 295>
VStem: 55 102<77 150> 112 83<237 319> 278 65<52 130> 298 76<220 287>
LayerCount: 2
Fore
SplineSet
102 158 m 3xf4
 126 158 156 145 156 116 c 3
 156 93 142 83 131 75 c 1
 146 50 167 34 198 34 c 3
 232 34 278 55 278 83 c 3xf4
 278 169 112 179 112 265 c 3
 112 334 192 361 254 361 c 3
 333 361 374 310 374 262 c 3
 374 233 363 217 336 217 c 3
 308 217 298 232 298 255 c 3
 298 269 309 287 322 287 c 1
 309 309 285 331 254 331 c 3
 217 331 195 303 195 272 c 3xea
 195 224 343 172 343 106 c 3
 343 24 261 0 202 0 c 3
 123 0 55 21 55 94 c 3
 55 131 73 158 102 158 c 3xf4
EndSplineSet
EndChar

StartChar: t
Encoding: 116 116 19
Width: 324
VWidth: 0
Flags: HW
HStem: 0 18G<129 188> 330 51<59 131 222 275>
LayerCount: 2
Fore
SplineSet
259 166 m 0
 278 150 223 0 154 0 c 3
 105 0 60 40 79 116 c 2
 131 330 l 1
 71 330 l 2
 49 330 49 382 71 382 c 2
 144 382 l 1
 176 514 l 2
 183 545 262 547 254 514 c 1
 222 382 l 1
 263 382 l 2
 285 382 285 330 263 330 c 2
 209 330 l 1
 166 154 l 2
 137 36 191 60 231 151 c 0
 239 169 250 174 259 166 c 0
EndSplineSet
EndChar

StartChar: u
Encoding: 117 117 20
Width: 504
VWidth: 0
Flags: HW
HStem: 0 36<179 242 337 401> 326 35<131 190>
LayerCount: 2
Fore
SplineSet
52 189 m 1
 47 223 85 361 179 361 c 3
 299 361 198 160 181 104 c 0
 171 73 175 36 199 36 c 3
 249 36 272 92 279 116 c 2
 351 361 l 1
 415 361 l 1
 343 116 l 2
 331 76 323 37 367 37 c 3
 417 37 447 132 451 152 c 1
 451 80 423 0 347 0 c 3
 291 0 297 53 299 96 c 1
 285 29 253 0 183 0 c 3
 143 0 116 34 116 86 c 3
 116 160 239 326 171 326 c 3
 121 326 67 236 52 189 c 1
EndSplineSet
EndChar

StartChar: v
Encoding: 118 118 21
Width: 497
VWidth: 0
Flags: HW
HStem: 0 43<144 223> 277 57<345 431> 344 17G<446 454> 465 18G<47 50> 495 43<76 139>
VStem: 86 51<47 196> 161 47<290 475>
LayerCount: 2
Fore
SplineSet
42 465 m 1
 52 490 81 538 117 538 c 3
 215 538 208 435 208 408 c 3
 208 304 137 196 137 94 c 3
 137 68 146 43 180 43 c 3
 257 43 274 182 274 284 c 3
 274 318 290 361 325 361 c 3
 359 361 361 335 390 335 c 3
 418 335 435 347 456 361 c 1
 451 331 432 277 392 277 c 3
 367 277 336 326 319 256 c 0
 303 191 325 0 171 0 c 3
 114 0 86 43 86 94 c 3
 86 205 161 252 161 387 c 3
 161 452 138 495 104 495 c 3
 72 495 59 479 42 465 c 1
EndSplineSet
EndChar

StartChar: w
Encoding: 119 119 22
Width: 620
VWidth: 0
Flags: HW
HStem: 0 43<172 226> 0 32<366 415> 263 98<448 504>
VStem: 439 122<266 342>
LayerCount: 2
Fore
SplineSet
48 176 m 1xb0
 62 242 109 361 174 361 c 3
 209 361 228 337 228 257 c 3
 228 173 139 43 184 43 c 3xb0
 268 43 297 237 345 352 c 0
 348 360 362 361 379 361 c 3
 396 361 415 360 413 352 c 0
 367 157 327 32 391 32 c 3
 435 32 524 201 502 263 c 1
 446 263 439 273 439 302 c 3
 439 347 464 361 490 361 c 3
 557 361 561 301 561 245 c 3
 561 173 490 0 387 0 c 3x70
 333 0 300 22 290 79 c 1
 260 47 251 0 174 0 c 3
 3 0 188 220 163 293 c 0
 153 322 93 230 48 176 c 1xb0
EndSplineSet
EndChar

StartChar: y
Encoding: 121 121 23
Width: 435
VWidth: 0
Flags: HWO
HStem: -165 13<124 172> 0 17<173 217> 327 34<113 177>
VStem: 49 55<-147 -123> 113 111<73 293>
LayerCount: 2
Fore
SplineSet
61 210 m 1
 62 280 88 361 165 361 c 3
 195 361 224 344 224 293 c 3
 224 234 117 17 190 17 c 3
 220 17 260 47 263 60 c 2
 331 361 l 1
 391 361 l 1
 323 60 l 2
 292 -78 250 -165 143 -165 c 3
 83 -165 49 -144 49 -114 c 3
 49 -81 66 -63 92 -63 c 3
 118 -63 135 -76 135 -93 c 3
 135 -110 118 -127 105 -123 c 1
 105 -136 122 -153 152 -153 c 3
 199 -153 231 -77 257 38 c 1
 236 17 216 0 173 0 c 3
 156 0 113 18 113 73 c 3
 113 163 238 327 148 327 c 3
 105 327 80 267 61 210 c 1
EndSplineSet
EndChar

StartChar: z
Encoding: 122 122 24
Width: 393
VWidth: 0
Flags: HW
HStem: 0 18G<60 82 194 263> 344 17G<164 213 308 332>
VStem: 49 49<0 74> 299 49<285 361>
LayerCount: 2
Fore
SplineSet
322 168 m 1
 322 102 315 0 210 0 c 3
 178 0 153 22 119 75 c 1
 97 75 93 54 99 32 c 0
 105 9 93 0 71 0 c 3
 50 0 49 7 49 47 c 3
 49 71 60 80 76 96 c 1
 253 256 l 1
 161 324 133 251 98 209 c 0
 89 198 72 193 67 204 c 0
 64 211 131 361 196 361 c 3
 229 361 264 344 286 284 c 1
 309 298 304 309 299 326 c 0
 295 340 293 361 322 361 c 3
 341 361 347 347 347 316 c 3
 347 299 342 288 332 279 c 2
 143 106 l 1
 222 47 254 54 322 168 c 1
EndSplineSet
EndChar

StartChar: cacute
Encoding: 263 263 25
Width: 394
VWidth: 0
Flags: HW
HStem: -140 68<150 233> 0 18G<156 178> 344 17G<234 277>
VStem: 60 275<236 283>
LayerCount: 2
Fore
SplineSet
246 332 m 0
 153 297 101 49 174 29 c 1
 236 19 250 80 294 160 c 0
 299 168 324 172 324 143 c 1
 324 -7 305 -140 137 -140 c 3
 101 -140 92 -72 199 -72 c 3
 259 -72 255 10 253 32 c 1
 235 16 214 4 190 1 c 0
 185 0 181 0 176 0 c 3
 136 0 88 17 69 84 c 0
 63 106 60 126 60 145 c 3
 60 292 219 361 250 361 c 0
 305 361 314 346 331 302 c 1
 334 292 335 283 335 273 c 3
 335 235 313 203 266 213 c 0
 232 221 247 273 287 296 c 1
 296 308 277 344 246 332 c 0
EndSplineSet
EndChar

StartChar: lslash
Encoding: 322 322 26
Width: 312
VWidth: 0
Flags: HW
HStem: 0 18G<105 153>
VStem: 189 58<460 526>
LayerCount: 2
Fore
SplineSet
224 130 m 0
 224 142 275 133 259 95 c 0
 241 51 172 0 134 0 c 3
 76 0 41 34 54 79 c 0
 102 243 133 360 189 524 c 0
 204 552 247 533 247 511 c 0
 247 489 97 118 124 69 c 0
 138 44 224 65 224 130 c 0
EndSplineSet
EndChar

StartChar: J
Encoding: 74 74 27
Width: 492
VWidth: 0
Flags: HW
HStem: 0 38<40 148 218 347> 503 34<132 271 341 452>
LayerCount: 2
Fore
SplineSet
40 0 m 1
 40 38 l 1
 125 38 l 2
 142 38 142 38 151 68 c 2
 269 474 l 2
 278 504 260 503 243 503 c 2
 132 503 l 1
 132 538 l 1
 452 538 l 1
 452 503 l 1
 363 503 l 2
 346 503 346 504 337 474 c 2
 219 68 l 2
 210 38 228 38 245 38 c 2
 347 38 l 1
 347 0 l 1
 40 0 l 1
EndSplineSet
EndChar

StartChar: oacute
Encoding: 243 243 28
Width: 432
VWidth: 0
Flags: HW
HStem: 0 21<147 206> 326 35<213 299>
VStem: 65 69<103 220> 307 62<141 260>
LayerCount: 2
Fore
SplineSet
170 0 m 3
 141 0 118 10 101 27 c 1
 68 -10 l 1
 49 8 l 1
 86 49 l 1
 72 74 65 107 65 146 c 3
 65 222 148 361 252 361 c 3
 287 361 312 348 331 327 c 1
 363 361 l 1
 380 343 l 1
 347 305 l 1
 362 278 370 243 370 208 c 3
 370 153 307 0 170 0 c 3
135 64 m 1
 139 31 150 21 177 21 c 3
 231 21 307 136 307 250 c 3
 307 253 307 257 307 260 c 1
 135 64 l 1
305 297 m 1
 300 314 287 326 252 326 c 3
 191 326 134 208 134 103 c 1
 305 297 l 1
EndSplineSet
EndChar

StartChar: nacute
Encoding: 324 324 29
Width: 531
VWidth: 0
Flags: HW
HStem: 0 39<376 425> 308 53<124 205> 327 34<296 393>
LayerCount: 2
Fore
SplineSet
53 244 m 0xc0
 82 319 131 361 185 361 c 3xc0
 213 361 241 359 259 323 c 1
 293 362 327 361 380 361 c 3xa0
 414 361 454 341 444 308 c 2xc0
 380 93 l 2
 371 62 371 39 400 39 c 3
 429 39 463 132 478 156 c 1
 483 122 449 0 390 0 c 3
 331 0 318 44 331 88 c 2
 380 254 l 2
 390 290 409 327 372 327 c 3xa0
 304 327 270 298 264 279 c 2
 186 10 l 2
 182 -3 122 -12 137 39 c 2
 205 274 l 2
 209 289 198 308 176 308 c 3
 127 308 109 270 83 219 c 0
 74 201 45 224 53 244 c 0xc0
EndSplineSet
EndChar

StartChar: uni1E3F
Encoding: 7743 7743 30
Width: 729
VWidth: 0
Flags: HW
HStem: 0 39<575 623> 306 54<124 204> 325 35<504 592>
LayerCount: 2
Fore
SplineSet
53 243 m 0xc0
 82 318 131 360 185 360 c 3xc0
 213 360 240 357 258 321 c 1
 283 344 316 360 360 360 c 3xa0
 403 360 425 340 444 306 c 1xc0
 493 355 531 360 579 360 c 3xa0
 613 360 652 339 642 306 c 2xc0
 579 92 l 2
 570 61 569 39 598 39 c 3
 627 39 661 132 676 156 c 1
 681 122 647 0 589 0 c 3
 531 0 517 44 530 88 c 2
 579 253 l 2
 589 288 607 325 570 325 c 3xa0
 520 325 458 293 444 243 c 2
 375 10 l 2
 372 0 311 -14 327 39 c 2
 395 272 l 2
 421 363 275 317 263 277 c 2
 185 10 l 2
 182 0 120 -14 136 39 c 2
 204 272 l 2
 208 287 197 306 175 306 c 3
 126 306 108 268 82 218 c 0
 73 200 45 223 53 243 c 0xc0
EndSplineSet
EndChar

StartChar: longs
Encoding: 383 383 31
Width: 283
VWidth: 0
Flags: HW
HStem: 0 64<42 90> 478 59<199 242>
VStem: 41 49<44 63>
LayerCount: 2
Fore
SplineSet
75 0 m 3
 55 0 41 9 41 30 c 3
 41 51 51 64 71 64 c 3
 81 64 90 54 90 44 c 1
 134 138 120 538 214 538 c 3
 229 538 243 528 243 508 c 3
 243 498 233 478 218 478 c 3
 209 478 203 483 198 489 c 1
 156 385 174 0 75 0 c 3
EndSplineSet
EndChar
